<svg width="16" height="16" viewBox="0 0 16 16" fill="none" xmlns="http://www.w3.org/2000/svg">
<path d="M5.05316 11.5463C4.8579 11.351 4.54132 11.351 4.34606 11.5463C4.15079 11.7416 4.15079 12.0581 4.34606 12.2534L7.54186 15.4492C7.63265 15.5422 7.75937 15.5999 7.89956 15.5999C8.01138 15.5999 8.11462 15.5631 8.1979 15.5011C8.21734 15.4867 8.23582 15.4707 8.25316 15.4534L11.4532 12.2534C11.6484 12.0581 11.6484 11.7416 11.4532 11.5463C11.2579 11.351 10.9413 11.351 10.7461 11.5463L8.39956 13.8928L8.39956 0.899902C8.39956 0.62376 8.1757 0.399902 7.89956 0.399902C7.62342 0.399902 7.39956 0.62376 7.39956 0.899902L7.39956 13.8927L5.05316 11.5463Z" fill="#6CBDBB"/>
</svg>
