<?xml version="1.0" encoding="UTF-8"?>
<svg xmlns="http://www.w3.org/2000/svg" xmlns:xlink="http://www.w3.org/1999/xlink" width="56px" height="56px" viewBox="0 0 56 56" version="1.1">
<g id="surface1">
<path style=" stroke:none;fill-rule:nonzero;fill:rgb(0.392157%,21.568628%,100%);fill-opacity:1;" d="M 54.757812 21.046875 C 54.226562 18.90625 54.160156 16.578125 54.542969 14.101562 C 54.777344 12.683594 54.714844 11.207031 54.375 9.765625 C 53.394531 5.535156 50.015625 2.164062 45.742188 1.191406 C 44.289062 0.855469 42.816406 0.808594 41.382812 1.023438 C 38.882812 1.40625 36.53125 1.320312 34.375 0.808594 C 31.210938 0.00390625 27.941406 -0.1875 24.652344 0.175781 C 11.554688 1.613281 1.238281 12.113281 0.101562 25.148438 C -0.601562 33.316406 2.324219 41.292969 8.136719 47.070312 C 13.390625 52.277344 20.441406 55.15625 27.816406 55.15625 C 28.605469 55.15625 29.4375 55.132812 30.253906 55.050781 C 43.371094 53.929688 53.949219 43.683594 55.402344 30.691406 C 55.765625 27.433594 55.550781 24.167969 54.785156 21.039062 L 54.757812 21.039062 Z M 32.515625 6.0625 C 32.792969 6.550781 32.792969 7.121094 32.5625 7.628906 C 31.703125 9.511719 31.363281 11.582031 31.597656 13.660156 C 32.175781 18.96875 36.488281 23.222656 41.8125 23.796875 C 43.902344 24.027344 46 23.691406 47.878906 22.84375 C 48.386719 22.613281 48.964844 22.632812 49.460938 22.890625 C 49.953125 23.144531 50.246094 23.609375 50.355469 24.136719 C 50.679688 26.167969 50.695312 28.285156 50.441406 30.339844 C 49.179688 40.773438 40.609375 49.089844 30.101562 50.148438 C 23.21875 50.824219 16.492188 48.453125 11.617188 43.628906 C 6.746094 38.800781 4.351562 32.117188 5.011719 25.296875 C 6.0625 14.824219 14.433594 6.316406 24.972656 5.046875 C 25.914062 4.9375 26.851562 4.875 27.773438 4.875 C 28.925781 4.875 30.101562 4.960938 31.253906 5.152344 C 31.785156 5.238281 32.257812 5.550781 32.511719 6.039062 L 32.511719 6.0625 Z M 48.15625 16.683594 C 46.898438 18.148438 45.039062 18.992188 43.109375 18.992188 C 39.457031 18.992188 36.46875 16.027344 36.46875 12.386719 C 36.46875 10.464844 37.324219 8.664062 38.796875 7.390625 C 40.015625 6.355469 41.53125 5.804688 43.109375 5.804688 L 43.34375 5.804688 C 46.824219 5.933594 49.648438 8.726562 49.777344 12.175781 L 49.777344 12.386719 C 49.777344 13.953125 49.199219 15.476562 48.171875 16.683594 Z M 48.15625 16.683594 "/>
</g>
</svg>
