<svg width="139" height="24" viewBox="0 0 139 24" fill="none" xmlns="http://www.w3.org/2000/svg">
<path d="M120.153 18.3229V5.23198H123.102V7.45641H123.255C123.528 6.70641 123.98 6.12118 124.61 5.70073C125.241 5.27459 125.994 5.06152 126.869 5.06152C127.755 5.06152 128.502 5.27743 129.11 5.70925C129.724 6.13539 130.156 6.71777 130.406 7.45641H130.542C130.832 6.72914 131.32 6.14959 132.008 5.71777C132.701 5.28027 133.522 5.06152 134.471 5.06152C135.676 5.06152 136.659 5.4422 137.42 6.20357C138.181 6.96493 138.562 8.07573 138.562 9.53596V18.3229H135.468V10.0132C135.468 9.20073 135.252 8.60698 134.82 8.23198C134.389 7.8513 133.86 7.66096 133.235 7.66096C132.491 7.66096 131.909 7.89391 131.488 8.35982C131.073 8.82005 130.866 9.41948 130.866 10.1581V18.3229H127.84V9.88539C127.84 9.20925 127.636 8.66948 127.227 8.26607C126.823 7.86266 126.295 7.66096 125.641 7.66096C125.198 7.66096 124.795 7.77459 124.431 8.00187C124.068 8.22346 123.778 8.5388 123.562 8.94789C123.346 9.3513 123.238 9.82289 123.238 10.3627V18.3229H120.153Z" fill="#A6DAD9"/>
<path d="M112.342 18.5786C111.063 18.5786 109.955 18.2973 109.018 17.7348C108.08 17.1723 107.353 16.3854 106.836 15.374C106.325 14.3627 106.069 13.1808 106.069 11.8286C106.069 10.4763 106.325 9.29164 106.836 8.27459C107.353 7.25755 108.08 6.46777 109.018 5.90527C109.955 5.34277 111.063 5.06152 112.342 5.06152C113.62 5.06152 114.728 5.34277 115.665 5.90527C116.603 6.46777 117.327 7.25755 117.839 8.27459C118.356 9.29164 118.614 10.4763 118.614 11.8286C118.614 13.1808 118.356 14.3627 117.839 15.374C117.327 16.3854 116.603 17.1723 115.665 17.7348C114.728 18.2973 113.62 18.5786 112.342 18.5786ZM112.359 16.107C113.052 16.107 113.631 15.9166 114.097 15.536C114.563 15.1496 114.91 14.6325 115.137 13.9848C115.37 13.3371 115.486 12.6155 115.486 11.82C115.486 11.0189 115.37 10.2945 115.137 9.64675C114.91 8.99334 114.563 8.47346 114.097 8.08709C113.631 7.70073 113.052 7.50755 112.359 7.50755C111.648 7.50755 111.057 7.70073 110.586 8.08709C110.12 8.47346 109.771 8.99334 109.538 9.64675C109.31 10.2945 109.197 11.0189 109.197 11.82C109.197 12.6155 109.31 13.3371 109.538 13.9848C109.771 14.6325 110.12 15.1496 110.586 15.536C111.057 15.9166 111.648 16.107 112.359 16.107Z" fill="#A6DAD9"/>
<path d="M98.97 18.5786C97.6632 18.5786 96.541 18.2916 95.6035 17.7178C94.6717 17.1439 93.9529 16.3513 93.4473 15.3399C92.9473 14.3229 92.6973 13.1524 92.6973 11.8286C92.6973 10.499 92.9529 9.32573 93.4643 8.30868C93.9757 7.28596 94.6973 6.4905 95.6291 5.92232C96.5666 5.34845 97.6745 5.06152 98.9529 5.06152C100.015 5.06152 100.956 5.25755 101.774 5.64959C102.598 6.03596 103.254 6.58425 103.743 7.29448C104.231 7.99902 104.51 8.82289 104.578 9.76607H101.629C101.51 9.13539 101.226 8.60982 100.777 8.18937C100.334 7.76323 99.7399 7.55016 98.9956 7.55016C98.3649 7.55016 97.8109 7.72061 97.3336 8.06152C96.8564 8.39675 96.4842 8.87971 96.2171 9.51039C95.9558 10.1411 95.8251 10.8968 95.8251 11.7774C95.8251 12.6695 95.9558 13.4365 96.2171 14.0786C96.4785 14.7149 96.845 15.2064 97.3166 15.553C97.7939 15.8939 98.3535 16.0644 98.9956 16.0644C99.4501 16.0644 99.8564 15.9791 100.214 15.8087C100.578 15.6325 100.882 15.3797 101.126 15.0502C101.371 14.7206 101.538 14.32 101.629 13.8485H104.578C104.504 14.7746 104.231 15.5956 103.76 16.3115C103.288 17.0218 102.646 17.5786 101.834 17.982C101.021 18.3797 100.067 18.5786 98.97 18.5786Z" fill="#A6DAD9"/>
<path d="M90.0206 18.1102C89.5036 18.1102 89.0604 17.9283 88.6911 17.5647C88.3218 17.2011 88.14 16.7579 88.1456 16.2352C88.14 15.7238 88.3218 15.2863 88.6911 14.9227C89.0604 14.559 89.5036 14.3772 90.0206 14.3772C90.5206 14.3772 90.9553 14.559 91.3246 14.9227C91.6996 15.2863 91.89 15.7238 91.8956 16.2352C91.89 16.5817 91.799 16.8971 91.6229 17.1812C91.4525 17.4653 91.2252 17.6925 90.9411 17.863C90.6627 18.0278 90.3559 18.1102 90.0206 18.1102Z" fill="#A6DAD9"/>
<path d="M80.5707 23.2319C80.1755 23.2319 79.5059 23.1295 78.9434 22.9344V20.3346C79.7161 20.6922 80.1246 20.6978 80.4769 20.6922C80.8292 20.6865 81.1388 20.5757 81.4059 20.3598C81.6786 20.1495 81.9087 19.7973 82.0962 19.303L82.3604 18.5956L77.6133 5.23193H80.886L83.9031 15.1183H84.0394L87.065 5.23193H90.3462L85.1048 19.9081C84.8604 20.6013 84.5366 21.195 84.1332 21.6893C83.7298 22.1893 83.2354 22.57 82.6502 22.8314C82.0707 23.0984 81.3775 23.2319 80.5707 23.2319Z" fill="#A6DAD9"/>
<path d="M76.2501 5.23182V7.61819H70.4451V5.23182H76.2501ZM70.445 2.09546H73.5302V14.3852C73.5302 14.8 73.5927 15.1182 73.7177 15.3398C73.8484 15.5557 74.0188 15.7034 74.2291 15.783C74.4393 15.8625 74.6722 15.9023 74.9279 15.9023C75.1211 15.9023 75.2972 15.8881 75.4563 15.8597C75.9475 15.772 76.2188 15.6491 76.3041 15.6264V18.2076C76.1393 18.2645 75.9506 18.3142 75.6438 18.3824C75.3427 18.4506 74.9734 18.4903 74.5359 18.5017C73.7631 18.5244 73.0671 18.408 72.4478 18.1523C71.8285 17.8909 71.337 17.4875 70.9734 16.942C70.6154 16.3966 70.4393 15.7148 70.445 14.8966V2.09546Z" fill="#A6DAD9"/>
<path d="M63.066 18.5786C61.7535 18.5786 60.6199 18.3058 59.6654 17.7604C58.7165 17.2093 57.9864 16.4308 57.4751 15.4252C56.9637 14.4138 56.708 13.2235 56.708 11.8541C56.708 10.5075 56.9637 9.32573 57.4751 8.30868C57.9921 7.28596 58.7137 6.4905 59.6398 5.92232C60.566 5.34845 61.654 5.06152 62.904 5.06152C63.7108 5.06152 64.4722 5.1922 65.1881 5.45357C65.9097 5.70925 66.5461 6.10698 67.0972 6.64675C67.654 7.18652 68.0915 7.87402 68.4097 8.70925C68.7279 9.5388 68.887 10.5274 68.887 11.6752V12.6212H58.1569V10.5416H65.9296C65.9239 9.95073 65.7961 9.42516 65.5461 8.96493C65.2961 8.49902 64.9466 8.13255 64.4978 7.8655C64.0546 7.59846 63.5375 7.46493 62.9466 7.46493C62.316 7.46493 61.762 7.61834 61.2847 7.92516C60.8074 8.2263 60.4353 8.62402 60.1682 9.11834C59.9069 9.60698 59.7733 10.1439 59.7677 10.7291V12.5445C59.7677 13.3058 59.9069 13.9593 60.1853 14.5047C60.4637 15.0445 60.8529 15.4593 61.3529 15.749C61.8529 16.0331 62.4381 16.1752 63.1086 16.1752C63.5574 16.1752 63.9637 16.1127 64.3273 15.9877C64.691 15.857 65.0063 15.6666 65.2733 15.4166C65.5404 15.1666 65.7421 14.857 65.8785 14.4877L68.887 14.4585C68.7052 15.2199 68.3517 16.1024 67.7194 16.8058C67.2137 17.3683 66.566 17.8058 65.7762 18.1183C64.9864 18.4252 64.083 18.5786 63.066 18.5786Z" fill="#A6DAD9"/>
<path d="M56.3865 5.23182V7.61818H50.5826V5.23182H56.3865ZM50.5825 18.3227V4.19602C50.5825 3.31534 50.7643 2.58239 51.128 1.99716C51.4973 1.41193 51.9916 0.974432 52.6109 0.684659C53.2302 0.394886 53.9177 0.25 54.6734 0.25C54.936 0.25 55.8605 0.254553 56.3865 0.480088V3.04893C56.2525 2.97381 56.1081 2.91477 55.9092 2.875C55.7104 2.82955 55.4888 2.80682 55.2445 2.80682C54.6706 2.80682 54.2643 2.94602 54.0257 3.22443C53.7927 3.49716 53.6763 3.8892 53.6763 4.40057V18.3227H50.5825Z" fill="#A6DAD9"/>
<path d="M41.9227 18.5871C41.0931 18.5871 40.346 18.4394 39.6812 18.1439C39.0221 17.8428 38.4994 17.3996 38.113 16.8144C37.7323 16.2291 37.542 15.5075 37.542 14.6496C37.542 13.911 37.6784 13.3002 37.9511 12.8172C38.2238 12.3343 38.596 11.9479 39.0676 11.6581C39.5391 11.3683 40.0704 11.1496 40.6613 11.0019C41.2579 10.8485 41.8744 10.7377 42.5107 10.6695C43.2778 10.5899 43.8999 10.5189 44.3772 10.4564C44.8545 10.3882 45.2011 10.286 45.417 10.1496C45.6386 10.0075 45.7494 9.7888 45.7494 9.49334V9.44221C45.7494 8.80016 45.559 8.303 45.1784 7.95073C44.7977 7.59845 44.2494 7.42232 43.5335 7.42232C42.7778 7.42232 42.1784 7.58709 41.7352 7.91664C41.2977 8.24618 41.0371 8.51428 40.8488 9.32762H37.9511C37.9511 8.24628 38.4495 7.34545 39.0931 6.68084C39.6159 6.14107 40.2551 5.73766 41.0107 5.47062C41.7664 5.19789 42.6016 5.06152 43.5164 5.06152C44.1471 5.06152 44.7749 5.13539 45.3999 5.28311C46.0249 5.43084 46.596 5.67516 47.113 6.01607C47.6301 6.35129 48.0448 6.80868 48.3573 7.38823C48.6755 7.96777 48.8346 8.69221 48.8346 9.56152V18.3229H45.8687V16.5246H45.7664C45.5789 16.8882 45.3147 17.2291 44.9738 17.5473C44.6386 17.8598 44.2153 18.1127 43.7039 18.3058C43.1982 18.4933 42.6045 18.5871 41.9227 18.5871ZM42.7238 16.32C43.3431 16.32 43.8801 16.1979 44.3346 15.9536C44.7892 15.7036 45.1386 15.374 45.3829 14.9649C45.6329 14.5558 45.7579 14.1098 45.7579 13.6269V12.0843C45.6613 12.1638 45.4965 12.2377 45.2636 12.3058C45.0363 12.374 44.7806 12.4337 44.4965 12.4848C44.2124 12.536 43.9312 12.5814 43.6528 12.6212C43.3744 12.661 43.1329 12.695 42.9284 12.7235C42.4681 12.786 42.0562 12.8882 41.6926 13.0303C41.3289 13.1723 41.042 13.3712 40.8318 13.6269C40.6215 13.8769 40.5164 14.2007 40.5164 14.5985C40.5164 15.1666 40.7238 15.5956 41.1386 15.8854C41.5534 16.1752 42.0818 16.32 42.7238 16.32Z" fill="#A6DAD9"/>
<path d="M32.96 5.84235C32.8805 5.09803 32.5367 4.34271 31.9458 3.92793C31.3606 3.51316 30.5992 3.30577 29.6617 3.30577C29.0027 3.30577 28.4373 3.40521 27.9657 3.60407C27.4941 3.80293 27.1333 4.07282 26.8833 4.41373C26.6333 4.75464 26.5055 5.14384 26.4998 5.58134C26.4998 5.94498 26.5822 6.26032 26.747 6.52737C26.9174 6.79441 27.1475 7.02168 27.4373 7.20918C27.7271 7.391 28.0481 7.54441 28.4004 7.66941C28.7527 7.79441 29.1078 7.89953 29.4657 7.98475L31.1021 8.39384C31.7612 8.54725 32.3947 8.75464 33.0027 9.016C33.6163 9.27737 34.1646 9.60691 34.6475 10.0046C35.1362 10.4024 35.5225 10.8825 35.8066 11.445C36.0907 12.0075 36.2328 12.6666 36.2328 13.4223C36.2328 14.445 35.9714 15.3455 35.4487 16.124C34.926 16.8967 34.1703 17.5018 33.1816 17.9393C32.1987 18.3711 31.0083 18.587 29.6106 18.587C28.2527 18.587 27.0737 18.3768 26.0737 17.9563C25.0794 17.5359 24.3009 16.9223 23.7384 16.1154C23.1816 15.3086 22.8804 13.9727 22.835 12.8136H25.9458C25.9912 13.4215 26.1788 14.2802 26.5083 14.6836C26.8379 15.087 27.2669 15.3882 27.7953 15.587C28.3294 15.7859 28.926 15.8853 29.585 15.8853C30.2725 15.8853 30.8748 15.783 31.3919 15.5785C31.9146 15.3683 32.3237 15.0785 32.6191 14.7092C32.9146 14.3342 33.0652 13.8967 33.0708 13.3967C33.0652 12.9421 32.9316 12.5671 32.6703 12.2717C32.4089 11.9705 32.0424 11.7205 31.5708 11.5217C31.1049 11.3171 30.5595 11.1353 29.9345 10.9762L27.9487 10.4649C26.5112 10.0955 25.3748 9.53589 24.5396 8.78589C23.71 8.03021 23.2953 7.02737 23.2953 5.77736C23.2953 4.74896 23.5737 3.84839 24.1305 3.07566C24.693 2.30293 25.4572 1.7035 26.4231 1.27736C27.389 0.845547 28.4828 0.629639 29.7044 0.629639C30.943 0.629639 32.0282 0.845547 32.96 1.27736C33.8975 1.7035 34.6333 2.29725 35.1674 3.05861C35.7015 3.8143 35.9856 4.85939 36.0027 5.84235H32.96Z" fill="#A6DAD9"/>
<path d="M21.242 0.868164V18.3227H18.0801V0.868164H21.242Z" fill="#A6DAD9"/>
<path d="M3.91406 18.3227H0.539062L6.68395 0.868164H10.5874L16.7408 18.3227H13.3658L8.70384 4.44771H8.56747L3.91406 18.3227ZM4.02486 12.379H13.2294V14.9187H4.02486V12.379Z" fill="#A6DAD9"/>
</svg>
